<?xml version="1.0" encoding="UTF-8" standalone="no"?>
<!-- Created with Inkscape (http://www.inkscape.org/) -->

<svg
   xmlns:sketch="http://www.bohemiancoding.com/sketch/ns"
   xmlns:dc="http://purl.org/dc/elements/1.1/"
   xmlns:cc="http://creativecommons.org/ns#"
   xmlns:rdf="http://www.w3.org/1999/02/22-rdf-syntax-ns#"
   xmlns:svg="http://www.w3.org/2000/svg"
   xmlns="http://www.w3.org/2000/svg"
   xmlns:xlink="http://www.w3.org/1999/xlink"
   xmlns:sodipodi="http://sodipodi.sourceforge.net/DTD/sodipodi-0.dtd"
   xmlns:inkscape="http://www.inkscape.org/namespaces/inkscape"
   width="147.91675mm"
   height="44.333336mm"
   viewBox="0 0 524.11446 157.08662"
   id="svg2"
   version="1.1"
   inkscape:version="0.91 r13725"
   sodipodi:docname="docker_ansible.svg">
  <defs
     id="defs4">
    <linearGradient
       inkscape:collect="always"
       id="linearGradient5750">
      <stop
         style="stop-color:#ff5555;stop-opacity:1;"
         offset="0"
         id="stop5752" />
      <stop
         style="stop-color:#ff0202;stop-opacity:0"
         offset="1"
         id="stop5754" />
    </linearGradient>
    <linearGradient
       inkscape:collect="always"
       xlink:href="#linearGradient5750"
       id="linearGradient5756"
       x1="360.62448"
       y1="160.90259"
       x2="439.92142"
       y2="160.90257"
       gradientUnits="userSpaceOnUse" />
  </defs>
  <sodipodi:namedview
     id="base"
     pagecolor="#ffffff"
     bordercolor="#666666"
     borderopacity="1.0"
     inkscape:pageopacity="0.0"
     inkscape:pageshadow="2"
     inkscape:zoom="1.979899"
     inkscape:cx="325.06974"
     inkscape:cy="29.285391"
     inkscape:document-units="px"
     inkscape:current-layer="layer1"
     showgrid="false"
     inkscape:window-width="2495"
     inkscape:window-height="1576"
     inkscape:window-x="65"
     inkscape:window-y="24"
     inkscape:window-maximized="1"
     fit-margin-top="1"
     fit-margin-left="1"
     fit-margin-bottom="1"
     fit-margin-right="1" />
  <metadata
     id="metadata7">
    <rdf:RDF>
      <cc:Work
         rdf:about="">
        <dc:format>image/svg+xml</dc:format>
        <dc:type
           rdf:resource="http://purl.org/dc/dcmitype/StillImage" />
        <dc:title></dc:title>
      </cc:Work>
    </rdf:RDF>
  </metadata>
  <g
     inkscape:label="Ebene 1"
     inkscape:groupmode="layer"
     id="layer1"
     transform="translate(-115.76473,-80.504689)">
    <g
       transform="matrix(1.0068263,0,0,1.0068263,-121.91669,-240.30756)"
       id="layer1-9"
       inkscape:label="Ebene 1">
      <g
         id="g4150"
         transform="translate(239.25222,322.60442)"
         sketch:type="MSShapeGroup"
         style="fill:none;fill-rule:evenodd;stroke:none;stroke-width:1">
        <path
           style="fill:#3a4e55"
           inkscape:connector-curvature="0"
           d="m 152.064,46.599 23.523,0 0,24.046 11.894,0 c 5.493,0 11.142,-0.978 16.344,-2.741 2.555,-0.866 5.424,-2.072 7.945,-3.589 -3.32,-4.336 -5.015,-9.809 -5.515,-15.205 -0.677,-7.34 0.803,-16.893 5.771,-22.637 l 2.472,-2.86 2.947,2.368 c 7.418,5.96 13.657,14.289 14.757,23.783 8.933,-2.627 19.42,-2.006 27.294,2.538 l 3.23,1.864 -1.7,3.319 c -6.659,12.996 -20.58,17.021 -34.19,16.309 -20.366,50.725 -64.705,74.741 -118.467,74.741 -27.775,0 -53.258,-10.384 -67.769,-35.026 l -0.237,-0.403 -2.115,-4.301 C 33.343,97.958 31.714,86.075 32.819,74.202 l 0.332,-3.557 20.115,0 0,-24.046 23.522,0 0,-23.523 47.047,0 0,-23.524 28.229,0 0,47.047 0,0 z"
           id="path4152" />
        <path
           style="fill:#00aada"
           inkscape:connector-curvature="0"
           d="m 228.275,55.495 c 1.577,-12.258 -7.596,-21.886 -13.285,-26.457 -6.556,7.58 -7.575,27.444 2.711,35.807 -5.74,5.099 -17.835,9.721 -30.22,9.721 l -150.757,0 c -1.204,12.928 1.065,24.832 6.249,35.023 l 1.715,3.136 c 1.086,1.843 2.272,3.622 3.554,5.334 l 0.001,0 c 6.197,0.399 11.912,0.536 17.14,0.421 l 0.003,0 c 10.273,-0.228 18.656,-1.44 25.01,-3.642 0.946,-0.329 1.977,0.173 2.304,1.118 0.326,0.945 -0.174,1.977 -1.119,2.304 -0.844,0.293 -1.725,0.567 -2.635,0.826 -0.001,0.001 -0.002,0.001 -0.003,0.001 -5.003,1.428 -10.367,2.39 -17.289,2.817 0.411,0.006 -0.428,0.062 -0.43,0.062 -0.235,0.014 -0.532,0.048 -0.768,0.061 -2.724,0.153 -5.664,0.185 -8.67,0.185 -3.287,0 -6.526,-0.062 -10.146,-0.246 l -0.092,0.061 c 12.561,14.118 32.202,22.586 56.82,22.586 52.105,0 96.3,-23.096 115.87,-74.951 13.884,1.424 27.228,-2.116 33.298,-13.964 -9.668,-5.58 -22.102,-3.801 -29.261,-0.203"
           id="path4154" />
        <path
           style="fill:#27b9ec"
           inkscape:connector-curvature="0"
           d="m 228.275,55.495 c 1.577,-12.258 -7.596,-21.886 -13.285,-26.457 -6.556,7.58 -7.575,27.444 2.711,35.807 -5.74,5.099 -17.835,9.721 -30.22,9.721 l -141.83,0 c -0.615,19.798 6.732,34.828 19.732,43.914 l 0.003,0 c 10.273,-0.228 18.656,-1.44 25.01,-3.642 0.946,-0.329 1.977,0.173 2.304,1.118 0.326,0.945 -0.174,1.977 -1.119,2.304 -0.844,0.293 -1.725,0.567 -2.635,0.826 -0.001,0.001 -0.002,0.001 -0.003,0.001 -5.003,1.428 -10.828,2.513 -17.749,2.94 -0.002,0 -0.168,-0.16 -0.17,-0.16 17.732,9.096 43.444,9.064 72.922,-2.26 33.055,-12.697 63.811,-36.89 85.273,-64.56 -0.324,0.146 -0.639,0.295 -0.944,0.448"
           id="path4156" />
        <path
           style="fill:#088cb9"
           inkscape:connector-curvature="0"
           d="m 37.006,90.273 c 0.937,6.925 2.962,13.409 5.967,19.316 l 1.715,3.137 c 1.086,1.842 2.272,3.621 3.555,5.333 6.199,0.399 11.914,0.536 17.143,0.421 10.273,-0.228 18.656,-1.44 25.01,-3.642 0.946,-0.328 1.977,0.173 2.304,1.118 0.327,0.945 -0.174,1.977 -1.119,2.304 -0.844,0.293 -1.725,0.567 -2.635,0.826 -0.001,0.001 -0.002,0.001 -0.003,0.001 -5.003,1.428 -10.797,2.452 -17.719,2.879 -0.237,0.014 -0.652,0.017 -0.891,0.031 -2.723,0.153 -5.633,0.246 -8.64,0.246 -3.286,0 -6.648,-0.063 -10.267,-0.246 12.561,14.118 32.324,22.616 56.942,22.616 44.607,0 83.415,-16.931 105.939,-54.34 l -177.301,0 0,0 z"
           id="path4158" />
        <path
           style="fill:#039cc7"
           inkscape:connector-curvature="0"
           d="m 47.008,90.273 c 2.667,12.16 9.075,21.705 18.378,28.207 10.273,-0.228 18.656,-1.44 25.01,-3.642 0.946,-0.328 1.977,0.173 2.304,1.118 0.327,0.945 -0.174,1.977 -1.119,2.304 -0.844,0.293 -1.725,0.567 -2.635,0.826 -0.001,0.001 -0.002,0.001 -0.003,0.001 -5.003,1.428 -10.92,2.452 -17.841,2.879 17.73,9.095 43.368,8.964 72.844,-2.358 17.833,-6.852 34.995,-17.051 50.392,-29.335 l -147.33,0 0,0 z"
           id="path4160" />
        <path
           style="fill:#00acd3"
           inkscape:connector-curvature="0"
           d="m 74.265,52.218 1.61,0 0,16.99 -1.61,0 0,-16.99 0,0 z m -3.089,0 1.673,0 0,16.99 -1.673,0 0,-16.99 0,0 z m -3.089,0 1.673,0 0,16.99 -1.673,0 0,-16.99 0,0 z m -3.09,0 1.674,0 0,16.99 -1.674,0 0,-16.99 0,0 z m -3.088,0 1.673,0 0,16.99 -1.673,0 0,-16.99 0,0 z m -3.025,0 1.609,0 0,16.99 -1.609,0 0,-16.99 0,0 z m -1.698,-1.699 20.386,0 0,20.388 -20.386,0 0,-20.388 0,0 z"
           id="path4162" />
        <path
           style="fill:#00acd3"
           inkscape:connector-curvature="0"
           d="m 97.788,28.695 1.611,0 0,16.989 -1.611,0 0,-16.989 0,0 z m -3.088,0 1.673,0 0,16.989 -1.673,0 0,-16.989 0,0 z m -3.09,0 1.673,0 0,16.989 -1.673,0 0,-16.989 0,0 z m -3.089,0 1.673,0 0,16.989 -1.673,0 0,-16.989 0,0 z m -3.088,0 1.672,0 0,16.989 -1.672,0 0,-16.989 0,0 z m -3.025,0 1.608,0 0,16.989 -1.608,0 0,-16.989 0,0 z m -1.7,-1.699 20.389,0 0,20.387 -20.389,0 0,-20.387 0,0 z"
           id="path4164" />
        <path
           style="fill:#26c2ee"
           inkscape:connector-curvature="0"
           d="m 97.788,52.218 1.611,0 0,16.99 -1.611,0 0,-16.99 0,0 z m -3.088,0 1.673,0 0,16.99 -1.673,0 0,-16.99 0,0 z m -3.09,0 1.673,0 0,16.99 -1.673,0 0,-16.99 0,0 z m -3.089,0 1.673,0 0,16.99 -1.673,0 0,-16.99 0,0 z m -3.088,0 1.672,0 0,16.99 -1.672,0 0,-16.99 0,0 z m -3.025,0 1.608,0 0,16.99 -1.608,0 0,-16.99 0,0 z m -1.7,-1.699 20.389,0 0,20.388 -20.389,0 0,-20.388 0,0 z"
           id="path4166" />
        <path
           style="fill:#00acd3"
           inkscape:connector-curvature="0"
           d="m 121.312,52.218 1.609,0 0,16.99 -1.609,0 0,-16.99 0,0 z m -3.089,0 1.674,0 0,16.99 -1.674,0 0,-16.99 0,0 z m -3.089,0 1.674,0 0,16.99 -1.674,0 0,-16.99 0,0 z m -3.089,0 1.673,0 0,16.99 -1.673,0 0,-16.99 0,0 z m -3.089,0 1.673,0 0,16.99 -1.673,0 0,-16.99 0,0 z m -3.025,0 1.608,0 0,16.99 -1.608,0 0,-16.99 0,0 z m -1.699,-1.699 20.388,0 0,20.388 -20.388,0 0,-20.388 0,0 z"
           id="path4168" />
        <path
           style="fill:#26c2ee"
           inkscape:connector-curvature="0"
           d="m 121.312,28.695 1.609,0 0,16.989 -1.609,0 0,-16.989 0,0 z m -3.089,0 1.674,0 0,16.989 -1.674,0 0,-16.989 0,0 z m -3.089,0 1.674,0 0,16.989 -1.674,0 0,-16.989 0,0 z m -3.089,0 1.673,0 0,16.989 -1.673,0 0,-16.989 0,0 z m -3.089,0 1.673,0 0,16.989 -1.673,0 0,-16.989 0,0 z m -3.025,0 1.608,0 0,16.989 -1.608,0 0,-16.989 0,0 z m -1.699,-1.699 20.388,0 0,20.387 -20.388,0 0,-20.387 0,0 z"
           id="path4170" />
        <path
           style="fill:#26c2ee"
           inkscape:connector-curvature="0"
           d="m 144.836,52.218 1.61,0 0,16.99 -1.61,0 0,-16.99 0,0 z m -3.089,0 1.673,0 0,16.99 -1.673,0 0,-16.99 0,0 z m -3.089,0 1.673,0 0,16.99 -1.673,0 0,-16.99 0,0 z m -3.09,0 1.673,0 0,16.99 -1.673,0 0,-16.99 0,0 z m -3.088,0 1.673,0 0,16.99 -1.673,0 0,-16.99 0,0 z m -3.025,0 1.609,0 0,16.99 -1.609,0 0,-16.99 0,0 z m -1.699,-1.699 20.388,0 0,20.388 -20.388,0 0,-20.388 0,0 z"
           id="path4172" />
        <path
           style="fill:#00acd3"
           inkscape:connector-curvature="0"
           d="m 144.836,28.695 1.61,0 0,16.989 -1.61,0 0,-16.989 0,0 z m -3.089,0 1.673,0 0,16.989 -1.673,0 0,-16.989 0,0 z m -3.089,0 1.673,0 0,16.989 -1.673,0 0,-16.989 0,0 z m -3.09,0 1.673,0 0,16.989 -1.673,0 0,-16.989 0,0 z m -3.088,0 1.673,0 0,16.989 -1.673,0 0,-16.989 0,0 z m -3.025,0 1.609,0 0,16.989 -1.609,0 0,-16.989 0,0 z m -1.699,-1.699 20.388,0 0,20.387 -20.388,0 0,-20.387 0,0 z"
           id="path4174" />
        <path
           style="fill:#26c2ee"
           inkscape:connector-curvature="0"
           d="m 144.836,5.171 1.61,0 0,16.99 -1.61,0 0,-16.99 0,0 z m -3.089,0 1.673,0 0,16.99 -1.673,0 0,-16.99 0,0 z m -3.089,0 1.673,0 0,16.99 -1.673,0 0,-16.99 0,0 z m -3.09,0 1.673,0 0,16.99 -1.673,0 0,-16.99 0,0 z m -3.088,0 1.673,0 0,16.99 -1.673,0 0,-16.99 0,0 z m -3.025,0 1.609,0 0,16.99 -1.609,0 0,-16.99 0,0 z m -1.699,-1.698 20.388,0 0,20.387 -20.388,0 0,-20.387 0,0 z"
           id="path4176" />
        <path
           style="fill:#00acd3"
           inkscape:connector-curvature="0"
           d="m 168.359,52.218 1.609,0 0,16.99 -1.609,0 0,-16.99 0,0 z m -3.088,0 1.672,0 0,16.99 -1.672,0 0,-16.99 0,0 z m -3.091,0 1.673,0 0,16.99 -1.673,0 0,-16.99 0,0 z m -3.088,0 1.673,0 0,16.99 -1.673,0 0,-16.99 0,0 z m -3.09,0 1.673,0 0,16.99 -1.673,0 0,-16.99 0,0 z m -3.025,0 1.61,0 0,16.99 -1.61,0 0,-16.99 0,0 z m -1.698,-1.699 20.388,0 0,20.388 -20.388,0 0,-20.388 0,0 z"
           id="path4178" />
        <path
           style="fill:#d5eef2"
           inkscape:connector-curvature="0"
           d="m 99.821,103.961 c 3.105,0 5.624,2.52 5.624,5.625 0,3.105 -2.519,5.623 -5.624,5.623 -3.107,0 -5.625,-2.518 -5.625,-5.623 0,-3.105 2.518,-5.625 5.625,-5.625"
           id="path4180" />
        <path
           style="fill:#3a4e55"
           inkscape:connector-curvature="0"
           d="m 99.821,105.557 c 0.514,0 1.005,0.097 1.458,0.272 -0.491,0.284 -0.823,0.816 -0.823,1.424 0,0.908 0.736,1.643 1.644,1.643 0.622,0 1.162,-0.346 1.442,-0.855 0.197,0.475 0.306,0.997 0.306,1.545 0,2.224 -1.803,4.028 -4.027,4.028 -2.225,0 -4.029,-1.804 -4.029,-4.028 0,-2.226 1.804,-4.029 4.029,-4.029"
           id="path4182" />
        <path
           style="fill:#3a4e55"
           inkscape:connector-curvature="0"
           d="m 0.337,92.306 123.201,0 15.238,0 123.198,0 c -5.697,-1.445 -18.025,-3.397 -15.992,-10.863 -10.358,11.986 -35.34,8.41 -41.644,2.498 -7.021,10.184 -47.893,6.313 -50.743,-1.62 -8.802,10.329 -36.075,10.329 -44.878,0 -2.852,7.933 -43.722,11.804 -50.744,1.62 -6.305,5.912 -31.284,9.488 -41.643,-2.498 2.033,7.466 -10.295,9.418 -15.993,10.863"
           id="path4184" />
        <path
           style="fill:#c0dbe1"
           inkscape:connector-curvature="0"
           d="m 114.771,144.492 c -13.929,-6.61 -21.574,-15.595 -25.828,-25.405 -5.174,1.478 -11.393,2.421 -18.62,2.827 -2.722,0.153 -5.585,0.231 -8.591,0.231 -3.464,0 -7.115,-0.102 -10.947,-0.306 12.773,12.766 28.487,22.595 57.583,22.774 2.148,0 4.281,-0.042 6.403,-0.121"
           id="path4186" />
        <path
           style="fill:#d5eef2"
           inkscape:connector-curvature="0"
           d="m 94.117,128.138 c -1.927,-2.616 -3.797,-5.903 -5.171,-9.052 -5.174,1.477 -11.395,2.422 -18.623,2.827 4.965,2.696 12.065,5.192 23.794,6.225"
           id="path4188" />
      </g>
    </g>
    <g
       transform="matrix(0.35998166,0,0,0.35998166,433.83622,-33.503012)"
       style="display:inline"
       inkscape:label="Ebene 2"
       id="layer2">
      <ellipse
         ry="208.34395"
         rx="208.44156"
         cy="534.89117"
         cx="354.08615"
         id="path4226"
         style="fill:#000000;fill-opacity:1;stroke:none;stroke-width:27.79999924;stroke-linejoin:round;stroke-miterlimit:4;stroke-dasharray:none;stroke-dashoffset:0" />
      <path
         sodipodi:nodetypes="ccccccccccccc"
         inkscape:connector-curvature="0"
         id="path4220"
         d="m 357.20508,409.18164 c -5.51475,0.11708 -10.43861,3.48369 -12.54883,8.58008 l -90.625,218.30357 30.6875,0.0932 35.91071,-90.24275 111.40179,89.44365 c 11.21662,8.96478 26.64963,-5.0318 21.17216,-18.30497 L 370.34766,417.76953 c -2.19042,-5.2992 -7.40982,-8.70976 -13.14258,-8.58789 z m 0.2832,43.48968 54.77734,134.77204 -82.71065,-65.23995 z"
         style="color:#000000;font-style:normal;font-variant:normal;font-weight:normal;font-stretch:normal;font-size:medium;line-height:normal;font-family:sans-serif;text-indent:0;text-align:start;text-decoration:none;text-decoration-line:none;text-decoration-style:solid;text-decoration-color:#000000;letter-spacing:normal;word-spacing:normal;text-transform:none;direction:ltr;block-progression:tb;writing-mode:lr-tb;baseline-shift:baseline;text-anchor:start;white-space:normal;clip-rule:nonzero;display:inline;overflow:visible;visibility:visible;opacity:1;isolation:auto;mix-blend-mode:normal;color-interpolation:sRGB;color-interpolation-filters:linearRGB;solid-color:#000000;solid-opacity:1;fill:#ffffff;fill-opacity:1;fill-rule:evenodd;stroke:none;stroke-width:27.79999924;stroke-linecap:butt;stroke-linejoin:round;stroke-miterlimit:4;stroke-dasharray:none;stroke-dashoffset:0;stroke-opacity:1;color-rendering:auto;image-rendering:auto;shape-rendering:auto;text-rendering:auto;enable-background:accumulate" />
    </g>
    <text
       xml:space="preserve"
       style="font-style:normal;font-weight:normal;font-size:16.52679062px;line-height:125%;font-family:Sans;-inkscape-font-specification:Sans;text-align:start;letter-spacing:0px;word-spacing:0px;text-anchor:start;fill:#243034;fill-opacity:1;stroke:none;stroke-width:1px;stroke-linecap:butt;stroke-linejoin:miter;stroke-opacity:1"
       x="345.8537"
       y="231.23975"
       id="text4192"
       sodipodi:linespacing="125%"><tspan
         sodipodi:role="line"
         id="tspan4194"
         x="345.8537"
         y="231.23975"
         style="font-size:198.32150269px;fill:#243034;fill-opacity:1">&amp;</tspan></text>
  </g>
</svg>
